# Blender v2.63 (sub 0) OBJ File: ''
# www.blender.org
mtllib Health.mtl
o Mesh_Cube.002_Cube.003
v -1.000000 -3.000000 1.178465
v -1.000000 -3.000000 3.178464
v -1.000000 -1.000000 3.178465
v -1.000000 -1.000000 1.178465
v 1.000000 -1.000000 1.178465
v 1.000000 -3.000000 1.178465
v 1.000000 -1.000000 3.178465
v 1.000000 -3.000000 3.178464
v -1.000000 3.000000 3.178465
v -1.000000 3.000000 1.178465
v -1.000000 1.000000 1.178465
v -1.000000 0.999999 3.178465
v 1.000000 3.000000 1.178465
v 1.000000 1.000000 1.178465
v 1.000000 3.000000 3.178465
v 1.000000 0.999999 3.178465
v -3.000000 0.999999 3.178465
v -3.000000 1.000000 1.178465
v -3.000000 -1.000000 1.178465
v -3.000000 -1.000000 3.178465
v 3.000000 1.000000 1.178465
v 3.000000 -1.000000 1.178465
v 3.000000 0.999999 3.178465
v 3.000000 -1.000000 3.178465
vn -1.000000 -0.000000 0.000000
vn 0.000000 0.000000 -1.000000
vn 1.000000 -0.000000 0.000000
vn 0.000000 -0.000000 1.000000
vn 0.000000 -1.000000 -0.000000
vn 0.000000 1.000000 0.000000
usemtl Material.001
s off
f 1//1 2//1 3//1 4//1
f 6//2 1//2 4//2 5//2
f 5//3 7//3 8//3 6//3
f 2//4 8//4 7//4 3//4
f 2//5 1//5 6//5 8//5
f 7//6 5//6 4//6 3//6
f 9//1 10//1 11//1 12//1
f 10//2 13//2 14//2 11//2
f 13//3 15//3 16//3 14//3
f 15//4 9//4 12//4 16//4
f 12//5 11//5 14//5 16//5
f 15//6 13//6 10//6 9//6
f 17//1 18//1 19//1 20//1
f 18//2 21//2 22//2 19//2
f 21//3 23//3 24//3 22//3
f 23//4 17//4 20//4 24//4
f 20//5 19//5 22//5 24//5
f 23//6 21//6 18//6 17//6
